#N canvas 1032 293 684 460 10;
#X msg 143 78 port 4000;
#X msg 153 102 status;
#X obj 342 299 tgl 15 0 empty empty empty 17 7 0 10 -262144 -1 -1 1
1;
#X obj 345 152 print;
#X msg 397 142 send 0 1 2 3;
#X msg 398 176 connect localhost 4001;
#X msg 348 51 send /thing/test 888;
#X obj 146 145 udpreceive;
#X obj 146 183 unpackOSC;
#X obj 335 116 packOSC;
#X obj 341 234 udpsend;
#X obj 129 314 print;
#X connect 0 0 7 0;
#X connect 1 0 7 0;
#X connect 4 0 10 0;
#X connect 5 0 10 0;
#X connect 6 0 9 0;
#X connect 7 0 8 0;
#X connect 8 0 9 0;
#X connect 9 0 10 0;
#X connect 10 0 2 0;
