#N canvas 285 175 952 806 10;
#X msg 191 352 port 4000;
#X msg 201 376 status;
#X obj 383 571 tgl 15 0 empty empty empty 17 7 0 10 -262144 -1 -1 1
1;
#X obj 522 576 print;
#X msg 445 416 send 0 1 2 3;
#X msg 446 450 connect localhost 4001;
#X msg 361 322 send /thing/test 888;
#X obj 194 422 udpreceive;
#X obj 199 450 unpackOSC;
#X obj 380 415 packOSC;
#X obj 383 528 udpsend;
#X floatatom 590 310 5 0 0 0 - - -, f 5;
#X msg 444 372 send /led \$1;
#X obj 579 335 % 8;
#X obj 284 550 timer;
#X floatatom 284 572 5 0 0 0 - - -, f 5;
#X obj 312 507 bng 15 250 50 0 empty empty empty 17 7 0 10 -262144
-1 -1;
#X obj 283 505 bng 15 250 50 0 empty empty empty 17 7 0 10 -262144
-1 -1;
#X obj 645 325 tgl 15 0 empty empty empty 17 7 0 10 -262144 -1 -1 1
1;
#X obj 579 290 bng 15 250 50 0 empty empty empty 17 7 0 10 -262144
-1 -1;
#X obj 637 365 metro 100;
#X obj 244 106 loadbang;
#X obj 651 423 f;
#X obj 703 426 + 1;
#X obj 100 719 dac~;
#X obj 113 679 osc~;
#X floatatom 119 582 5 0 0 0 - - -, f 5;
#X obj 127 528 routeOSC /led;
#X obj 106 619 * 100;
#X obj 111 647 + 100;
#X obj 60 532 print;
#X connect 0 0 7 0;
#X connect 1 0 7 0;
#X connect 4 0 10 0;
#X connect 5 0 10 0;
#X connect 6 0 9 0;
#X connect 7 0 8 0;
#X connect 8 0 16 0;
#X connect 8 0 27 0;
#X connect 8 0 30 0;
#X connect 9 0 10 0;
#X connect 10 0 2 0;
#X connect 11 0 13 0;
#X connect 12 0 9 0;
#X connect 13 0 12 0;
#X connect 13 0 17 0;
#X connect 14 0 15 0;
#X connect 16 0 14 1;
#X connect 17 0 14 0;
#X connect 18 0 20 0;
#X connect 19 0 11 0;
#X connect 20 0 22 0;
#X connect 21 0 0 0;
#X connect 21 0 5 0;
#X connect 21 0 18 0;
#X connect 22 0 23 0;
#X connect 22 0 11 0;
#X connect 23 0 22 1;
#X connect 25 0 24 0;
#X connect 25 0 24 1;
#X connect 26 0 28 0;
#X connect 27 0 26 0;
#X connect 28 0 29 0;
#X connect 29 0 25 0;
