#N canvas 0 22 684 460 10;
#X obj 187 165 mrpeach/unpackOSC;
#X obj 159 243 print;
#X obj 186 127 mrpeach/udpreceive;
#X msg 183 60 port 4000;
#X msg 193 84 status;
#X obj 342 234 mrpeach/udpsend;
#X obj 346 285 tgl 15 0 empty empty empty 17 7 0 10 -262144 -1 -1 1
1;
#X obj 335 116 mrpeach/packOSC;
#X obj 345 152 print;
#X msg 397 142 send 0 1 2 3;
#X msg 398 176 connect localhost 4001;
#X obj 137 328 netsend;
#X msg 348 51 send /thing/test 888;
#X connect 0 0 1 0;
#X connect 2 0 0 0;
#X connect 3 0 2 0;
#X connect 4 0 2 0;
#X connect 5 0 6 0;
#X connect 7 0 5 0;
#X connect 9 0 5 0;
#X connect 10 0 5 0;
#X connect 12 0 7 0;
